<?xml version="1.0" standalone="no"?>
<!DOCTYPE svg PUBLIC "-//W3C//DTD SVG 20010904//EN"
 "http://www.w3.org/TR/2001/REC-SVG-20010904/DTD/svg10.dtd">
<svg version="1.0" xmlns="http://www.w3.org/2000/svg"
 width="464.000000pt" height="442.000000pt" viewBox="0 0 464.000000 442.000000"
 preserveAspectRatio="xMidYMid meet">

<g transform="translate(0.000000,442.000000) scale(0.100000,-0.100000)"
fill="#000000" stroke="none">
<path d="M2186 3814 c-3 -8 -11 -12 -16 -9 -6 4 -17 1 -25 -5 -8 -7 -15 -9
-15 -6 0 4 -9 2 -21 -5 -19 -10 -20 -9 -14 13 7 20 6 21 -9 9 -10 -9 -16 -10
-16 -2 0 15 -49 14 -56 -2 -3 -8 -18 -11 -43 -9 -30 3 -44 -1 -61 -18 -12 -12
-30 -22 -42 -23 -11 -1 -30 -11 -43 -23 -13 -12 -26 -19 -29 -16 -6 5 -56 -44
-56 -56 0 -4 -17 -24 -37 -46 -34 -36 -83 -101 -83 -111 0 -2 7 -2 15 1 19 8
19 -3 1 -21 -10 -11 -16 -11 -26 -2 -10 10 -12 7 -7 -11 4 -18 2 -22 -8 -18
-16 6 -26 -24 -45 -132 -8 -48 -8 -67 1 -78 9 -11 8 -14 -4 -14 -21 0 -26 -41
-26 -220 0 -161 18 -329 35 -320 9 5 7 207 -2 222 -8 13 -10 186 -1 181 4 -2
7 7 7 22 0 33 112 247 137 260 10 6 21 15 25 20 4 6 8 7 8 3 0 -4 10 -4 23 1
54 20 80 22 74 8 -9 -24 76 -33 118 -13 25 12 40 14 60 6 14 -5 48 -10 75 -10
27 0 52 -4 55 -10 12 -20 85 -10 147 20 55 25 68 28 103 20 22 -6 59 -7 82 -4
41 6 113 -12 113 -28 0 -4 11 -8 25 -8 14 0 29 -8 35 -20 6 -11 16 -18 21 -14
15 9 79 -61 85 -95 4 -16 19 -41 35 -55 23 -21 29 -35 29 -66 0 -22 4 -48 9
-58 58 -111 91 -315 91 -569 0 -100 -2 -113 -20 -126 -11 -8 -25 -28 -31 -45
-13 -37 -34 -42 -42 -11 -5 18 -11 20 -44 16 -83 -11 -109 -23 -127 -61 -9
-19 -23 -36 -31 -40 -23 -8 -62 10 -81 39 -11 17 -25 25 -45 25 -28 0 -29 -1
-23 -40 7 -45 6 -46 -53 -24 -45 18 -49 23 -33 52 11 19 31 116 22 108 -3 -4
-14 2 -24 11 -30 27 -87 27 -113 -1 -33 -36 -64 -39 -97 -10 -44 36 -83 32
-107 -13 -10 -19 -8 -24 14 -39 23 -15 24 -17 8 -37 -16 -22 -35 -26 -122 -26
-37 0 -48 -5 -81 -39 -20 -22 -39 -49 -42 -59 -5 -18 23 -128 36 -140 3 -3 18
8 33 25 15 17 40 34 56 37 15 4 27 11 27 16 0 5 9 9 20 9 12 0 17 5 14 13 -8
22 64 45 134 44 35 -1 66 1 68 4 5 8 63 -2 70 -12 3 -5 13 -3 24 3 15 10 23 9
38 -6 13 -11 22 -14 27 -7 18 30 41 -9 24 -40 -9 -17 -7 -21 10 -26 11 -3 23
-14 27 -25 4 -15 9 -17 19 -8 24 20 36 2 20 -29 -9 -19 -25 -30 -46 -35 -45
-9 -49 -8 -43 9 5 12 -4 11 -52 -5 -31 -11 -75 -20 -96 -20 -24 0 -37 -4 -33
-10 3 -5 -1 -10 -9 -10 -9 0 -16 5 -16 10 0 6 -7 10 -15 10 -8 0 -15 -4 -15
-8 0 -5 -20 -6 -45 -2 -24 4 -50 3 -57 -2 -21 -13 30 -46 82 -53 25 -4 69 -11
99 -17 61 -11 135 -3 169 18 18 12 23 12 26 2 2 -7 7 -21 10 -31 12 -37 -4
-64 -45 -76 -42 -13 -59 -9 -59 15 0 8 -4 14 -10 14 -5 0 -7 -6 -4 -14 6 -16
-33 -29 -54 -17 -8 4 -44 2 -81 -6 -107 -23 -251 -4 -251 32 0 9 -5 13 -11 10
-6 -4 -13 2 -16 14 -5 20 -14 25 -39 22 -7 -1 -15 10 -18 24 -4 14 -12 25 -19
25 -6 0 -27 18 -46 40 -31 37 -59 45 -47 14 3 -8 1 -14 -5 -14 -6 0 -17 -7
-26 -15 -14 -14 -17 -14 -36 2 -20 18 -20 18 -13 -17 3 -19 29 -70 56 -113 28
-43 50 -82 50 -86 0 -4 9 -17 20 -29 14 -14 16 -22 8 -22 -8 0 -6 -5 5 -11 9
-5 17 -15 17 -20 0 -6 8 -23 19 -37 10 -15 21 -38 25 -52 3 -14 13 -34 21 -45
14 -17 17 -18 25 -5 7 11 10 11 10 2 0 -7 4 -10 10 -7 13 8 80 -5 80 -16 0 -5
-12 -9 -27 -9 -39 0 -9 -19 32 -21 l30 -1 -33 -9 c-18 -5 -30 -14 -27 -19 8
-13 -14 -23 -28 -12 -24 18 -46 22 -40 6 3 -8 8 -13 11 -10 2 3 13 1 24 -5 11
-6 17 -13 14 -17 -14 -13 -52 -8 -78 9 -14 11 -31 19 -37 19 -6 0 -11 5 -11
11 0 5 -4 8 -9 4 -5 -3 -12 -1 -16 5 -4 6 -10 8 -15 5 -29 -18 -90 110 -90
186 0 39 -16 37 -24 -2 -17 -84 -1 -132 77 -237 52 -70 63 -85 132 -189 30
-46 60 -83 65 -83 6 0 15 -11 20 -24 5 -14 21 -32 35 -42 17 -11 25 -25 25
-44 0 -16 7 -30 16 -34 11 -4 14 -1 9 13 -4 13 0 20 15 24 11 3 20 10 20 17 0
6 -5 8 -12 4 -7 -4 -8 -3 -4 5 5 7 20 9 42 5 19 -3 49 -8 67 -9 48 -4 49 -4
43 -14 -3 -4 5 -6 18 -4 13 3 30 -2 39 -11 14 -15 16 -13 19 16 3 29 10 37 57
61 31 15 63 25 73 21 10 -3 18 -1 18 4 0 6 9 8 20 5 30 -8 76 15 104 52 34 44
118 190 174 303 48 97 68 200 43 225 -6 6 -11 38 -11 70 0 46 7 73 30 119 40
79 64 150 86 250 9 46 21 88 26 95 5 6 9 51 9 101 0 76 3 89 16 88 9 0 20 11
25 26 8 23 4 40 -21 91 -33 68 -37 82 -21 72 7 -4 10 6 8 27 -1 23 6 46 22 68
20 28 21 33 6 27 -16 -6 -17 -3 -12 30 8 45 17 279 18 445 1 81 -3 122 -12
133 -9 10 -10 31 -6 69 7 54 7 55 -34 97 -23 24 -49 43 -59 44 -10 1 -31 13
-47 28 -16 15 -33 27 -39 27 -5 0 -26 15 -45 33 -48 43 -83 63 -88 49 -4 -12
-52 30 -52 45 0 15 -56 35 -110 39 -30 3 -59 9 -64 14 -15 15 -29 12 -22 -5 3
-8 1 -15 -4 -15 -6 0 -10 7 -10 16 0 14 -12 16 -90 11 -77 -4 -89 -3 -79 9 9
11 7 14 -9 14 -11 0 -23 -7 -26 -16z m-133 -39 c-3 -8 -9 -15 -14 -15 -10 0
-12 24 -3 33 11 11 24 -3 17 -18z m-60 -15 c-3 -11 -7 -20 -9 -20 -2 0 -4 9
-4 20 0 11 4 20 9 20 5 0 7 -9 4 -20z m-288 -230 c-3 -5 -12 -10 -18 -10 -7 0
-6 4 3 10 19 12 23 12 15 0z m-77 -98 c-10 -2 -18 -10 -18 -17 0 -8 -6 -12
-14 -9 -8 3 -12 12 -10 19 6 16 34 24 49 16 6 -3 2 -7 -7 -9z m1322 -958 c0
-14 -4 -22 -10 -19 -5 3 -10 17 -10 31 0 14 4 22 10 19 6 -3 10 -17 10 -31z
m-699 -204 c21 0 27 -4 23 -15 -4 -8 -15 -15 -25 -15 -10 0 -19 -4 -19 -8 0
-4 -19 -7 -42 -6 -60 3 -60 3 -53 15 4 6 14 8 22 4 12 -4 13 -3 5 8 -16 19 -2
30 32 23 16 -3 41 -6 57 -6z m-164 -20 c3 -11 9 -18 13 -15 5 3 11 1 14 -4 11
-17 -34 -20 -45 -3 -9 15 -10 15 -5 -2 5 -13 2 -17 -9 -12 -9 3 -15 0 -15 -9
0 -11 -9 -14 -30 -12 -17 2 -32 6 -35 9 -8 8 55 59 65 53 6 -3 10 -1 10 4 0
19 32 12 37 -9z m437 -226 c21 -8 21 -24 0 -24 -10 0 -14 -6 -10 -15 3 -8 1
-15 -4 -15 -6 0 -10 5 -10 11 0 7 -10 9 -25 5 -14 -4 -25 -2 -25 4 0 5 5 10
11 10 6 0 17 7 25 15 18 17 17 17 38 9z m-30 -82 c3 -5 -4 -21 -15 -38 l-19
-29 2 38 c2 34 19 50 32 29z m-678 -507 c10 -8 15 -14 9 -14 -5 0 -19 6 -29
14 -11 8 -15 15 -10 15 6 0 19 -7 30 -15z m224 -15 c0 -5 -4 -10 -10 -10 -5 0
-10 5 -10 10 0 6 5 10 10 10 6 0 10 -4 10 -10z m-165 -12 c14 -6 25 -15 25
-20 0 -4 6 -8 14 -8 8 0 16 -3 18 -7 2 -5 20 -16 42 -26 49 -23 42 -32 -12
-13 -22 8 -43 12 -46 9 -9 -10 -7 -35 3 -29 5 3 28 -1 52 -8 24 -8 89 -24 144
-36 156 -34 157 -34 98 -38 -29 -2 -53 -7 -53 -13 0 -5 -15 -9 -32 -8 -27 0
-29 2 -13 8 17 7 15 9 -15 15 -19 4 -52 7 -74 7 -33 -1 -36 1 -26 14 11 13 8
15 -14 15 -15 0 -32 5 -39 10 -7 6 -21 17 -32 24 -17 12 -18 17 -7 42 12 24
11 26 -2 14 -13 -10 -16 -10 -16 2 0 8 -11 20 -25 26 -14 6 -25 16 -25 22 0
13 3 13 35 -2z m175 -98 c0 -5 -2 -10 -4 -10 -3 0 -8 5 -11 10 -3 6 -1 10 4
10 6 0 11 -4 11 -10z m30 -90 c0 -5 -7 -7 -15 -4 -8 4 -15 8 -15 10 0 2 7 4
15 4 8 0 15 -4 15 -10z"/>
<path d="M1822 2880 c-18 -4 -36 -11 -39 -14 -12 -12 22 -35 57 -39 38 -5 90
-26 90 -37 0 -4 -27 -13 -59 -19 -90 -18 -163 -75 -97 -76 14 -1 28 -4 32 -8
13 -13 22 -7 17 12 -3 12 2 20 16 24 15 4 22 -2 30 -26 14 -39 14 -39 -9 -27
-11 6 -20 7 -20 2 0 -5 18 -17 39 -28 42 -20 37 -34 -13 -34 -21 0 -27 -3 -19
-11 20 -20 127 -12 174 12 46 24 50 26 73 28 25 2 69 78 64 111 -3 19 0 30 8
30 6 0 22 9 35 20 l24 19 -33 1 c-20 0 -48 12 -74 30 -22 17 -53 30 -67 30
-14 0 -64 2 -111 4 -47 3 -100 1 -118 -4z m174 -189 c-12 -19 -24 -12 -19 10
4 13 9 17 15 11 6 -6 7 -15 4 -21z"/>
<path d="M2640 2883 c0 -5 -60 -7 -133 -6 -141 1 -226 -12 -235 -37 -3 -8 -10
-18 -16 -22 -8 -6 -8 -10 0 -15 5 -5 9 -25 8 -46 -1 -20 2 -40 7 -43 5 -3 7
-9 4 -14 -10 -16 47 -95 59 -83 3 4 6 -2 6 -13 1 -17 2 -17 10 -3 11 19 47 19
115 0 51 -13 135 -14 135 -1 0 6 12 10 26 10 14 0 23 4 19 10 -7 12 18 40 36
40 6 0 27 9 46 21 28 18 32 24 21 36 -7 8 -23 19 -36 24 -13 5 -21 13 -17 18
3 5 0 13 -6 17 -8 5 -9 3 -4 -6 6 -9 0 -10 -24 -5 -17 4 -62 10 -99 14 l-67 6
28 19 c21 14 47 19 102 20 40 0 68 4 62 8 -8 5 -6 8 5 8 9 0 19 -6 21 -12 3
-7 4 -2 3 12 -1 14 -6 31 -10 38 -8 13 -66 17 -66 5z m-161 -205 c1 -16 -1
-16 -20 3 -17 17 -18 23 -8 36 12 13 14 13 20 -4 4 -10 8 -26 8 -35z m141 33
c0 -12 -20 -25 -27 -18 -7 7 6 27 18 27 5 0 9 -4 9 -9z"/>
<path d="M2640 2800 c0 -5 5 -10 11 -10 5 0 7 5 4 10 -3 6 -8 10 -11 10 -2 0
-4 -4 -4 -10z"/>
<path d="M3024 2734 c-13 -6 -7 -44 7 -44 5 0 9 -23 9 -52 0 -70 9 -56 11 18
3 89 2 90 -27 78z"/>
<path d="M1470 2711 c0 -12 5 -21 10 -21 6 0 10 6 10 14 0 8 -4 18 -10 21 -5
3 -10 -3 -10 -14z"/>
<path d="M1472 2660 c0 -14 2 -19 5 -12 2 6 2 18 0 25 -3 6 -5 1 -5 -13z"/>
<path d="M3031 2564 c0 -11 3 -14 6 -6 3 7 2 16 -1 19 -3 4 -6 -2 -5 -13z"/>
<path d="M3022 2505 c0 -16 2 -22 5 -12 2 9 2 23 0 30 -3 6 -5 -1 -5 -18z"/>
<path d="M2431 2408 c1 -22 17 -55 19 -38 0 12 4 11 15 -4 8 -11 18 -17 21
-14 7 7 -12 44 -20 41 -16 -7 -25 -1 -20 12 4 8 1 15 -5 15 -6 0 -11 -6 -10
-12z"/>
<path d="M2976 2373 c-11 -11 -6 -23 9 -23 8 0 15 4 15 9 0 13 -16 22 -24 14z"/>
<path d="M1571 2294 c0 -11 3 -14 6 -6 3 7 2 16 -1 19 -3 4 -6 -2 -5 -13z"/>
<path d="M1715 2140 c2 -31 15 -37 15 -7 0 15 -4 27 -8 27 -5 0 -8 -9 -7 -20z"/>
<path d="M1742 2110 c0 -14 2 -19 5 -12 2 6 2 18 0 25 -3 6 -5 1 -5 -13z"/>
<path d="M2619 1142 c-18 -13 -21 -13 -15 -1 4 8 1 7 -6 -2 -14 -17 -76 -47
-113 -55 -44 -10 -91 -16 -112 -16 -33 0 -18 -16 25 -28 48 -13 98 -13 123 1
19 9 19 9 7 -13 -7 -12 -21 -30 -30 -38 -15 -15 -15 -19 -2 -47 l15 -31 122 2
c113 1 169 -4 240 -20 23 -5 27 -3 27 15 0 11 5 21 10 21 43 0 -37 90 -155
174 -69 50 -105 60 -136 38z"/>
<path d="M1800 1127 c-19 -5 -48 -20 -65 -32 -16 -12 -44 -29 -62 -38 -39 -20
-40 -50 -3 -88 35 -36 64 -44 95 -23 27 18 34 37 10 28 -9 -4 -15 0 -15 9 0
20 32 12 84 -21 25 -15 42 -20 48 -14 6 6 19 5 36 -4 14 -7 29 -11 32 -7 3 3
0 8 -7 10 -7 2 -15 20 -19 39 -5 28 -9 32 -20 23 -8 -6 -14 -19 -14 -27 0 -12
-3 -13 -12 -4 -8 8 -8 15 2 26 7 10 10 26 6 42 -5 19 9 7 54 -46 48 -55 66
-69 81 -65 10 4 19 2 19 -4 0 -5 9 -9 19 -8 12 1 17 6 13 15 -4 12 -1 12 15 3
18 -9 22 -7 26 10 5 18 2 21 -24 17 -16 -3 -29 -1 -29 4 0 4 -6 8 -13 8 -7 0
-19 9 -27 20 -8 11 -19 20 -25 20 -6 0 -21 14 -34 31 -13 18 -28 28 -37 25 -8
-3 -14 0 -14 8 0 7 -11 19 -25 26 -14 7 -25 17 -25 22 0 10 -26 9 -70 -5z"/>
<path d="M2116 1023 c-6 -14 -5 -15 5 -6 7 7 10 15 7 18 -3 3 -9 -2 -12 -12z"/>
<path d="M2316 944 c-4 -9 -4 -19 -1 -22 2 -3 7 3 11 12 4 9 4 19 1 22 -2 3
-7 -3 -11 -12z"/>
<path d="M2462 939 c-7 -11 -11 -23 -9 -25 7 -7 29 24 25 36 -2 6 -9 1 -16
-11z"/>
<path d="M2257 893 c-11 -10 -8 -53 3 -53 6 0 10 14 10 30 0 31 -2 35 -13 23z"/>
<path d="M2210 620 c0 -5 5 -10 11 -10 6 0 9 -9 6 -20 -3 -11 -1 -20 4 -20 5
0 9 14 9 30 0 20 -5 30 -15 30 -8 0 -15 -4 -15 -10z"/>
<path d="M2171 595 c-1 -28 18 -45 49 -44 l25 1 -26 9 c-15 5 -31 20 -37 32
-10 21 -11 21 -11 2z"/>
<path d="M4626 447 c-5 -9 -5 -34 0 -55 7 -34 8 -35 12 -9 2 15 2 39 0 55 -4
22 -6 24 -12 9z"/>
<path d="M674 200 c8 -41 16 -116 10 -98 -5 16 -54 55 -54 42 0 -3 9 -19 21
-35 15 -21 20 -41 17 -65 -3 -29 -1 -33 14 -28 10 3 18 1 18 -5 0 -6 7 -11 15
-11 27 0 17 102 -16 168 -16 31 -27 46 -25 32z"/>
<path d="M3823 124 c-15 -49 -17 -124 -3 -124 13 0 22 56 18 115 l-3 50 -12
-41z"/>
<path d="M3870 98 c-6 -24 -15 -53 -20 -66 -13 -30 -13 -32 3 -32 8 0 14 6 14
13 0 18 13 90 19 110 3 9 3 17 0 17 -3 0 -10 -19 -16 -42z"/>
<path d="M3908 68 c-22 -33 -31 -68 -19 -68 6 0 11 5 11 11 0 5 4 7 10 4 5 -3
7 0 4 9 -3 8 0 24 6 36 16 30 6 36 -12 8z"/>
</g>
</svg>
